<svg width="16" height="16" viewBox="0 0 16 16" fill="none" xmlns="http://www.w3.org/2000/svg">
<path d="M6.36816 1.00001L6.36816 13.1849L8.90734 14.059V3.84213C8.90734 3.36069 9.10488 3.04104 9.42173 3.15097C9.83602 3.27582 9.91653 3.71931 9.91653 4.19539V8.27586C11.497 9.10708 12.7414 8.27542 12.7414 6.08231C12.7414 3.84126 12.0118 2.84291 9.86521 2.04022C9.01851 1.73389 7.44934 1.21697 6.36816 1.00001Z" fill="#515151"/>
<path d="M9.56738 12.2753L13.4056 10.5469C13.8398 10.3432 13.9062 10.0666 13.5548 9.92118C13.1978 9.77309 12.5608 9.81547 12.1219 10.0148L9.56738 11.155V9.33578L9.71366 9.27467C9.71366 9.27467 10.4531 8.94324 11.4931 8.80055C12.5312 8.65658 13.8042 8.81928 14.8047 9.29642C15.9318 9.74944 16.0581 10.4102 15.7729 10.8701C15.4836 11.3252 14.7822 11.6544 14.7822 11.6544L9.56738 14.0245" fill="#515151"/>
<path d="M1.13994 12.4764C-0.0579158 12.0963 -0.257666 11.293 0.288786 10.829C0.792844 10.4053 1.65128 10.0863 1.65128 10.0863L5.19984 8.64499L5.19984 10.2854L2.6486 11.3272C2.19669 11.5114 2.12893 11.7705 2.49293 11.906C2.86343 12.0471 3.52095 12.0091 3.97311 11.8191L5.19984 11.3152V12.7797C5.12077 12.7948 5.03286 12.81 4.95262 12.8256C3.72954 13.0569 2.42648 12.9619 1.13994 12.4764Z" fill="#515151"/>
<path fill-rule="evenodd" clip-rule="evenodd" d="M15.8441 13.9726C15.7432 14.0764 15.6109 14.135 15.4685 14.135C15.326 14.135 15.1894 14.0764 15.0884 13.9726C14.9887 13.867 14.9336 13.7291 14.9336 13.5805C14.9336 13.2726 15.1727 13.0238 15.4685 13.0238C15.6109 13.0238 15.7432 13.0806 15.8441 13.1866C15.9437 13.2902 16 13.4305 16 13.5805C16 13.7291 15.9437 13.867 15.8441 13.9726ZM15.0235 13.5804C15.0235 13.4538 15.0689 13.3377 15.152 13.2517C15.237 13.1638 15.3505 13.1164 15.4685 13.1164C15.5866 13.1164 15.6972 13.1638 15.7802 13.2517C15.864 13.3377 15.9092 13.4538 15.9092 13.5804C15.9092 13.834 15.7113 14.0398 15.4685 14.0398C15.3505 14.0398 15.237 13.993 15.152 13.9062C15.0689 13.8186 15.0235 13.7038 15.0235 13.5804ZM15.7118 13.8112C15.7166 13.8256 15.7224 13.834 15.7306 13.8365L15.738 13.8409V13.8762H15.6224L15.6202 13.8691L15.6123 13.8478C15.611 13.8365 15.6094 13.8218 15.6079 13.7971L15.6027 13.7005C15.6014 13.6662 15.5907 13.6463 15.5708 13.633C15.5561 13.6279 15.536 13.6239 15.5061 13.6239H15.3454V13.8762H15.24V13.2566H15.5164C15.5615 13.2566 15.5994 13.265 15.6285 13.2778C15.6867 13.3064 15.7166 13.3579 15.7166 13.4303C15.7166 13.4658 15.7081 13.4991 15.6935 13.5237C15.6809 13.541 15.6659 13.5569 15.6496 13.5723L15.654 13.5755C15.665 13.5836 15.676 13.5916 15.6824 13.6034C15.6971 13.6203 15.7038 13.6488 15.705 13.6853L15.7077 13.7642C15.7081 13.7844 15.7097 13.8001 15.7118 13.8112ZM15.5872 13.5066C15.6043 13.4951 15.6123 13.4723 15.6123 13.4374C15.6123 13.4006 15.6001 13.3761 15.5762 13.3638C15.5615 13.3579 15.5432 13.3535 15.5186 13.3535H15.3454V13.5276H15.5091C15.5416 13.5276 15.5674 13.5206 15.5872 13.5066Z" fill="#515151"/>
</svg>
