<svg width="16" height="16" viewBox="0 0 16 16" fill="none" xmlns="http://www.w3.org/2000/svg">
<path fill-rule="evenodd" clip-rule="evenodd" d="M8.4 2C9.63429 2 10.6552 2.3944 11.5848 3.0577C11.6 3.0577 11.6 3.07563 11.6 3.09356C11.6 3.11148 11.5848 3.11148 11.5695 3.11148C10.381 2.80672 8.58286 4.00784 8.41524 4.13333H8.4H8.38476C8.21714 4.00784 6.41905 2.80672 5.23048 3.11148C5.21524 3.11148 5.2 3.11148 5.2 3.09356C5.2 3.07563 5.2 3.0577 5.21524 3.0577C6.14476 2.3944 7.16571 2 8.4 2ZM12.4899 13.2632C13.4498 12.2697 10.2758 8.7615 8.40233 7.33336C8.40233 7.33336 8.38685 7.33336 8.38685 7.34888C6.52887 8.7615 3.33934 12.2697 4.31478 13.2632C5.3986 14.2257 6.83853 14.8 8.40233 14.8C9.96613 14.8 11.3906 14.2257 12.4899 13.2632ZM3.75342 4.16373C3.74612 4.16373 3.74247 4.16774 3.73881 4.17175C3.73516 4.17576 3.73151 4.17977 3.7242 4.17977C2.65753 5.35093 2 6.97131 2 8.75212C2 10.2121 2.45297 11.5757 3.19817 12.6506C3.19817 12.6667 3.21279 12.6667 3.2274 12.6667C3.24201 12.6667 3.24201 12.6506 3.2274 12.6346C2.77443 11.1105 5.06849 7.43657 6.25205 5.89641L6.26667 5.88036C6.26667 5.86432 6.26667 5.86432 6.25205 5.86432C4.45479 3.90704 3.85571 4.1156 3.75342 4.16373ZM10.5334 5.87374L10.548 5.85768C12.3453 3.91455 12.9444 4.12331 13.032 4.15543C13.0381 4.15543 13.0417 4.15543 13.0448 4.15658C13.0492 4.15821 13.0527 4.16211 13.0613 4.17149C14.1425 5.3438 14.8001 6.96575 14.8001 8.7483C14.8001 10.2097 14.3471 11.5747 13.6019 12.6506C13.6019 12.6667 13.5873 12.6667 13.5727 12.6667V12.6346C14.011 11.109 11.7316 7.43146 10.548 5.8898C10.5334 5.8898 10.5334 5.87374 10.5334 5.87374Z" fill="#515151"/>
</svg>
